<?xml version="1.0" encoding="UTF-8"?>
<!DOCTYPE svg PUBLIC "-//W3C//DTD SVG 1.1//EN" "http://www.w3.org/Graphics/SVG/1.1/DTD/svg11.dtd">
<svg xmlns="http://www.w3.org/2000/svg" version="1.1" width="216px" height="192px" style="shape-rendering:geometricPrecision; text-rendering:geometricPrecision; image-rendering:optimizeQuality; fill-rule:evenodd; clip-rule:evenodd" xmlns:xlink="http://www.w3.org/1999/xlink">
<g><path style="opacity:1" fill="#fdfdfd" d="M -0.5,-0.5 C 35.5,-0.5 71.5,-0.5 107.5,-0.5C 101.117,0.872863 96.4502,4.53953 93.5,10.5C 92.0027,12.2897 91.336,14.4563 91.5,17C 91.5085,18.7067 91.8418,20.2067 92.5,21.5C 96.5999,32.7198 104.6,36.8865 116.5,34C 125.496,29.1712 128.996,21.6712 127,11.5C 124.06,5.04709 119.226,1.04709 112.5,-0.5C 146.833,-0.5 181.167,-0.5 215.5,-0.5C 215.5,57.5 215.5,115.5 215.5,173.5C 205.231,152.462 194.564,131.629 183.5,111C 177.542,106.316 171.709,106.483 166,111.5C 161.833,118.5 157.667,125.5 153.5,132.5C 152.635,133.583 151.635,133.749 150.5,133C 143.018,129.001 135.685,124.834 128.5,120.5C 125.83,107.483 123.163,94.4828 120.5,81.5C 120.165,76.1258 118.832,71.1258 116.5,66.5C 109.779,50.283 97.7785,40.4497 80.5,37C 66.1667,36.3333 51.8333,36.3333 37.5,37C 28.6293,46.202 20.1293,55.702 12,65.5C 10.3468,71.3782 11.8468,76.2115 16.5,80C 59.1538,102.659 101.487,125.825 143.5,149.5C 142.248,151.001 141.248,152.668 140.5,154.5C 133.858,155.331 127.191,155.831 120.5,156C 117.667,157.5 115.5,159.667 114,162.5C 110.703,170.694 107.87,179.027 105.5,187.5C 104.566,188.568 104.232,189.901 104.5,191.5C 97.1667,191.5 89.8333,191.5 82.5,191.5C 86.9861,190.152 89.8194,187.152 91,182.5C 91.6667,167.833 91.6667,153.167 91,138.5C 89.9542,136.91 88.7875,135.41 87.5,134C 69.1508,122.155 50.1508,111.321 30.5,101.5C 29.7025,101.957 29.3691,102.624 29.5,103.5C 27.5683,107.195 26.235,111.195 25.5,115.5C 24.6123,120.724 23.2789,125.724 21.5,130.5C 20.0762,132.515 19.4095,134.848 19.5,137.5C 18.6295,140.112 17.9628,142.779 17.5,145.5C 16.8826,145.611 16.3826,145.944 16,146.5C 14.8286,151.186 13.6619,155.852 12.5,160.5C 11.4056,165.673 10.0723,170.673 8.5,175.5C 7.36594,177.966 7.19927,180.633 8,183.5C 8.38258,184.056 8.88258,184.389 9.5,184.5C 11.1667,187.5 13.5,189.833 16.5,191.5C 10.8333,191.5 5.16667,191.5 -0.5,191.5C -0.5,127.5 -0.5,63.5 -0.5,-0.5 Z"/></g>
<g><path style="opacity:1" fill="#1b3255" d="M 107.5,-0.5 C 109.167,-0.5 110.833,-0.5 112.5,-0.5C 119.226,1.04709 124.06,5.04709 127,11.5C 128.996,21.6712 125.496,29.1712 116.5,34C 104.6,36.8865 96.5999,32.7198 92.5,21.5C 92.423,17.7852 92.7564,14.1185 93.5,10.5C 96.4502,4.53953 101.117,0.872863 107.5,-0.5 Z"/></g>
<g><path style="opacity:1" fill="#f7c187" d="M 93.5,10.5 C 92.7564,14.1185 92.423,17.7852 92.5,21.5C 91.8418,20.2067 91.5085,18.7067 91.5,17C 91.336,14.4563 92.0027,12.2897 93.5,10.5 Z"/></g>
<g><path style="opacity:1" fill="#1a3254" d="M 116.5,66.5 C 117.341,71.7387 118.674,76.7387 120.5,81.5C 123.163,94.4828 125.83,107.483 128.5,120.5C 135.685,124.834 143.018,129.001 150.5,133C 151.635,133.749 152.635,133.583 153.5,132.5C 157.667,125.5 161.833,118.5 166,111.5C 171.709,106.483 177.542,106.316 183.5,111C 194.564,131.629 205.231,152.462 215.5,173.5C 215.5,179.167 215.5,184.833 215.5,190.5C 178.833,190.5 142.167,190.5 105.5,190.5C 105.5,189.5 105.5,188.5 105.5,187.5C 107.87,179.027 110.703,170.694 114,162.5C 115.5,159.667 117.667,157.5 120.5,156C 127.191,155.831 133.858,155.331 140.5,154.5C 141.248,152.668 142.248,151.001 143.5,149.5C 101.487,125.825 59.1538,102.659 16.5,80C 11.8468,76.2115 10.3468,71.3782 12,65.5C 20.1293,55.702 28.6293,46.202 37.5,37C 51.8333,36.3333 66.1667,36.3333 80.5,37C 97.7785,40.4497 109.779,50.283 116.5,66.5 Z"/></g>
<g><path style="opacity:1" fill="#f3f1ef" d="M 49.5,58.5 C 53.5,58.5 57.5,58.5 61.5,58.5C 61.6495,59.552 61.4828,60.552 61,61.5C 56.7681,66.6591 52.1015,71.3258 47,75.5C 43.9449,74.3895 41.1116,72.8895 38.5,71C 42.0566,66.708 45.7232,62.5413 49.5,58.5 Z"/></g>
<g><path style="opacity:1" fill="#447ab1" d="M 116.5,66.5 C 118.832,71.1258 120.165,76.1258 120.5,81.5C 118.674,76.7387 117.341,71.7387 116.5,66.5 Z"/></g>
<g><path style="opacity:1" fill="#f5f6f6" d="M 97.5,87.5 C 97.6471,93.2331 98.3137,98.8998 99.5,104.5C 93.6701,102.088 88.3368,98.9217 83.5,95C 86.9205,90.1695 90.5871,85.5029 94.5,81C 95.7441,80.5439 96.5774,81.0439 97,82.5C 97.4935,84.1341 97.6602,85.8008 97.5,87.5 Z"/></g>
<g><path style="opacity:1" fill="#ecc99e" d="M 97.5,87.5 C 99.5993,93.0742 100.266,98.7408 99.5,104.5C 98.3137,98.8998 97.6471,93.2331 97.5,87.5 Z"/></g>
<g><path style="opacity:1" fill="#1b3254" d="M 82.5,191.5 C 80.5,191.5 78.5,191.5 76.5,191.5C 73.5282,189.359 71.0282,186.692 69,183.5C 68.8325,172.152 68.3325,160.819 67.5,149.5C 60.4372,144.591 53.2705,139.924 46,135.5C 43.8886,138.907 42.2219,142.573 41,146.5C 37.9823,160.543 33.9823,174.21 29,187.5C 26.9847,188.697 25.1513,190.03 23.5,191.5C 21.1667,191.5 18.8333,191.5 16.5,191.5C 13.5,189.833 11.1667,187.5 9.5,184.5C 8.70105,181.57 8.36772,178.57 8.5,175.5C 10.0723,170.673 11.4056,165.673 12.5,160.5C 14.9193,155.854 16.5859,150.854 17.5,145.5C 17.9628,142.779 18.6295,140.112 19.5,137.5C 20.9238,135.485 21.5905,133.152 21.5,130.5C 23.2789,125.724 24.6123,120.724 25.5,115.5C 27.7403,111.902 29.0736,107.902 29.5,103.5C 29.3691,102.624 29.7025,101.957 30.5,101.5C 50.1508,111.321 69.1508,122.155 87.5,134C 88.7875,135.41 89.9542,136.91 91,138.5C 91.6667,153.167 91.6667,167.833 91,182.5C 89.8194,187.152 86.9861,190.152 82.5,191.5 Z"/></g>
<g><path style="opacity:1" fill="#ddaa80" d="M 29.5,103.5 C 29.0736,107.902 27.7403,111.902 25.5,115.5C 26.235,111.195 27.5683,107.195 29.5,103.5 Z"/></g>
<g><path style="opacity:1" fill="#c5896b" d="M 21.5,130.5 C 21.5905,133.152 20.9238,135.485 19.5,137.5C 19.4095,134.848 20.0762,132.515 21.5,130.5 Z"/></g>
<g><path style="opacity:1" fill="#fcfbfa" d="M 76.5,191.5 C 58.8333,191.5 41.1667,191.5 23.5,191.5C 25.1513,190.03 26.9847,188.697 29,187.5C 33.9823,174.21 37.9823,160.543 41,146.5C 42.2219,142.573 43.8886,138.907 46,135.5C 53.2705,139.924 60.4372,144.591 67.5,149.5C 68.3325,160.819 68.8325,172.152 69,183.5C 71.0282,186.692 73.5282,189.359 76.5,191.5 Z"/></g>
<g><path style="opacity:1" fill="#dbad86" d="M 17.5,145.5 C 16.5859,150.854 14.9193,155.854 12.5,160.5C 13.6619,155.852 14.8286,151.186 16,146.5C 16.3826,145.944 16.8826,145.611 17.5,145.5 Z"/></g>
<g><path style="opacity:1" fill="#e8a877" d="M 8.5,175.5 C 8.36772,178.57 8.70105,181.57 9.5,184.5C 8.88258,184.389 8.38258,184.056 8,183.5C 7.19927,180.633 7.36594,177.966 8.5,175.5 Z"/></g>
<g><path style="opacity:1" fill="#71737d" d="M 105.5,187.5 C 105.5,188.5 105.5,189.5 105.5,190.5C 142.167,190.5 178.833,190.5 215.5,190.5C 215.5,190.833 215.5,191.167 215.5,191.5C 178.5,191.5 141.5,191.5 104.5,191.5C 104.232,189.901 104.566,188.568 105.5,187.5 Z"/></g>
</svg>
